<?xml version="1.0" encoding="UTF-8"?>
<svg version="1.1" xmlns="http://www.w3.org/2000/svg" width="2048" height="2048">
<path d="M0 0 C675.84 0 1351.68 0 2048 0 C2048 675.84 2048 1351.68 2048 2048 C1372.16 2048 696.32 2048 0 2048 C0 1372.16 0 696.32 0 0 Z " fill="#FBFCFC" transform="translate(0,0)"/>
<path d="M0 0 C1.09554221 -0.00467997 2.19108442 -0.00935994 3.31982487 -0.01418173 C6.99834774 -0.02616675 10.67650047 -0.0166602 14.35502625 -0.00723267 C16.98987926 -0.01129707 19.62470662 -0.01652972 22.259552 -0.02316284 C28.68052583 -0.03651014 35.1013945 -0.0336166 41.52237246 -0.02492492 C46.74714408 -0.01814621 51.97188624 -0.01723249 57.196661 -0.02049637 C57.94071151 -0.02095607 58.68476203 -0.02141577 59.45135954 -0.0218894 C60.96309017 -0.02284861 62.47482081 -0.02382125 63.98655143 -0.02480717 C78.16987882 -0.03336566 92.3531481 -0.02352313 106.53646597 -0.00740607 C118.68011687 0.00596718 130.82368162 0.00369469 142.96733093 -0.01016235 C157.08329742 -0.02626257 171.19921276 -0.03250972 185.31518716 -0.02332556 C186.82467949 -0.02236999 188.33417182 -0.02142687 189.84366417 -0.02049637 C190.95753933 -0.01980213 190.95753933 -0.01980213 192.09391702 -0.01909386 C197.30075576 -0.01651499 202.50756184 -0.0208517 207.71439552 -0.02793503 C214.07748375 -0.03640105 220.44046114 -0.03396509 226.80353687 -0.0180928 C230.04402696 -0.01027327 233.2842976 -0.00865655 236.52479172 -0.01704025 C253.11935053 -0.05599076 268.99341277 0.18977282 284.56864929 6.63095093 C285.32081726 6.93396118 286.07298523 7.23697144 286.84794617 7.54916382 C293.12606295 10.16122208 298.78006835 13.3330319 304.25614929 17.38095093 C305.51105164 18.30520874 305.51105164 18.30520874 306.79130554 19.24813843 C317.27895493 27.32054862 325.34009122 36.13752691 332.25614929 47.38095093 C334.98811379 44.73865704 337.39547939 42.03125542 339.69364929 39.00595093 C344.30136291 32.95498594 348.68093237 27.6641547 354.69364929 23.00595093 C355.30418152 22.53262329 355.91471375 22.05929565 356.54374695 21.57162476 C367.36435057 13.36112057 379.19778439 7.18748368 392.25614929 3.38095093 C393.10394958 3.12621695 393.95174988 2.87148296 394.82524109 2.60902977 C407.21056003 -0.56673351 419.74572576 -0.04013181 432.44364929 -0.00723267 C435.08620272 -0.01130281 437.72873094 -0.01653964 440.37127686 -0.02316284 C446.77362467 -0.03643031 453.17586637 -0.03365491 459.57821816 -0.02492492 C464.78140737 -0.01812579 469.98456702 -0.01724122 475.1877594 -0.02049637 C475.93070238 -0.02095607 476.67364535 -0.02141577 477.43910176 -0.0218894 C478.9486789 -0.02284863 480.45825603 -0.02382128 481.96783316 -0.02480717 C496.08556318 -0.03333933 510.20323452 -0.02355871 524.32095492 -0.00740607 C536.4284513 0.00601736 548.53586146 0.00364818 560.64335632 -0.01016235 C574.72596466 -0.02621843 588.80852186 -0.03253886 602.89113808 -0.02332556 C604.39244715 -0.02236996 605.89375622 -0.02142685 607.39506531 -0.02049637 C608.13363687 -0.02003354 608.87220843 -0.01957072 609.63316095 -0.01909386 C614.83277961 -0.01650571 620.03236574 -0.02087073 625.23197937 -0.02793503 C632.22525432 -0.03722823 639.21836339 -0.03060961 646.21162224 -0.01325226 C648.77952745 -0.00928077 651.34744637 -0.01043271 653.91534615 -0.01704025 C657.41593383 -0.02521862 660.91599565 -0.01497863 664.41654968 0 C665.43618805 -0.00669217 666.45582642 -0.01338433 667.50636292 -0.02027929 C672.83942966 0.02408935 676.670868 0.33962977 681.25614929 3.38095093 C686.11154256 8.76125158 686.39596512 12.26360909 686.35380554 19.32626343 C686.35239059 20.21127533 686.35097565 21.09628723 686.34951782 22.00811768 C686.3439107 24.84076284 686.33135701 27.67332957 686.31864929 30.50595093 C686.31363521 32.42391854 686.30907214 34.34188738 686.30497742 36.25985718 C686.29393895 40.96691874 686.27666954 45.67392153 686.25614929 50.38095093 C687.43644714 50.36000366 688.616745 50.3390564 689.83280945 50.31747437 C694.22721646 50.24487324 698.62157083 50.19907822 703.0164032 50.16122437 C704.91558254 50.14115463 706.81470044 50.11389242 708.71366882 50.07919312 C711.44933768 50.03046984 714.184187 50.00793585 716.92021179 49.99032593 C718.18618698 49.95935822 718.18618698 49.95935822 719.47773743 49.92776489 C724.9060446 49.92571583 727.93691164 50.78783873 732.25614929 54.38095093 C736.20283169 58.87200331 736.40384383 62.95917483 736.39875031 68.72153664 C736.40200132 69.47869321 736.40525234 70.23584979 736.40860188 71.0159505 C736.41832863 73.57363055 736.42089724 76.13126832 736.42350769 78.68896484 C736.4289524 80.53305159 736.43481568 82.37713713 736.4410634 84.22122133 C736.45694183 89.3049687 736.46643874 94.38871123 736.47482824 99.47247577 C736.48282382 103.82891438 736.4945161 108.18533989 736.50624305 112.54176982 C736.54817844 128.14700068 736.57535755 143.75224693 736.59989929 159.35751343 C736.60286164 161.20421297 736.60286164 161.20421297 736.60588384 163.08821958 C736.64396972 186.85616272 736.67754681 210.62411195 736.69914299 234.39207622 C736.70463709 240.43442914 736.71033666 246.47678186 736.71611023 252.51913452 C736.71674266 253.18679856 736.71737508 253.85446259 736.71802668 254.54235887 C736.73870611 276.18828774 736.78467387 297.83406659 736.84476291 319.47991926 C736.90817097 342.36306925 736.94586849 365.24615869 736.95543909 388.12940156 C736.96135455 400.60414877 736.97915214 413.07863897 737.02682495 425.55330276 C737.06738361 436.17629168 737.08431956 446.79898166 737.07017213 457.42204459 C737.06369606 462.84303872 737.06861687 468.26339585 737.10404587 473.68429184 C737.1362255 478.64783064 737.13605975 483.61028211 737.11022884 488.57384829 C737.10657726 490.36867474 737.11475632 492.16357274 737.13601035 493.95827706 C737.31571152 510.10639312 737.31571152 510.10639312 731.24585009 516.8521589 C727.18240179 519.97432047 723.54916462 520.63113818 718.50279522 520.64266396 C717.34680283 520.65012945 716.19081045 520.65759494 714.99978799 520.66528666 C713.7342302 520.66335193 712.46867242 520.66141719 711.1647644 520.65942383 C709.80338643 520.66442739 708.44201143 520.67030337 707.08064061 520.67697656 C703.34080435 520.69278331 699.6010432 520.69620761 695.86117756 520.69762516 C691.82780448 520.70131803 687.79447266 520.71647294 683.76112366 520.73023987 C676.77343363 520.75252007 669.78575826 520.76752878 662.79804039 520.77760696 C652.6949628 520.79218883 642.59193629 520.81772428 632.48888866 520.84593825 C616.09760169 520.89141518 599.70630736 520.92802627 583.31498718 520.95907593 C567.39179697 520.98925778 551.46862474 521.02360637 535.54545593 521.06356812 C534.564048 521.06602966 533.58264008 521.06849121 532.57149252 521.07102735 C527.64808607 521.08340188 522.72467984 521.09585843 517.8012737 521.10835576 C476.95292392 521.21193705 436.10455199 521.30113586 395.25614929 521.38095093 C394.8544754 522.13495178 394.45280151 522.88895264 394.03895569 523.665802 C393.50654266 524.65558044 392.97412964 525.64535889 392.42558289 526.66513062 C391.900159 527.64600647 391.37473511 528.62688232 390.83338928 529.63748169 C382.00850087 544.9875933 365.61031362 556.40649116 349.04521179 561.65438843 C331.64096929 566.18826673 313.67377273 563.31343579 298.22489929 554.36532593 C293.42586441 551.15754998 289.30230312 547.48449701 285.25614929 543.38095093 C284.63224304 542.76735718 284.00833679 542.15376343 283.36552429 541.52157593 C279.50003962 537.44714614 276.76954177 532.98197494 274.04521179 528.11141968 C273.67887634 527.46314209 273.31254089 526.8148645 272.93510437 526.14694214 C272.03896348 524.56005644 271.14711756 522.9707466 270.25614929 521.38095093 C269.5622736 521.37997412 268.8683979 521.37899731 268.15349567 521.3779909 C227.04381559 521.31973974 185.93418899 521.24595879 144.82457434 521.15196465 C139.89030791 521.14069626 134.9560412 521.12955784 130.02177429 521.11849976 C128.5482667 521.11519423 128.5482667 521.11519423 127.04499127 521.11182193 C111.13169803 521.07643364 95.21840485 521.05157815 79.30508684 521.03060391 C62.98086719 521.00885405 46.65669867 520.9758114 30.33252251 520.93224937 C20.25675418 520.9057186 10.18104959 520.88803373 0.10524805 520.88160489 C-6.80077697 520.87635537 -13.70672173 520.86015307 -20.61270376 520.83528527 C-24.59921077 520.82125532 -28.58557406 520.81210502 -32.57210732 520.81594276 C-36.2215786 520.81934954 -39.87074276 520.80900836 -43.52015112 520.78771541 C-45.46622252 520.77994193 -47.41233552 520.78689656 -49.35840809 520.79436797 C-56.29925741 520.73768631 -60.88227114 520.52323958 -66.4000687 516.0332343 C-72.86083866 509.39437811 -71.57206832 500.03081667 -71.49902344 491.42697144 C-71.50522295 489.57372292 -71.51404136 487.72048164 -71.52524883 485.86725664 C-71.54835224 480.78123517 -71.53404518 475.69590326 -71.51353967 470.60989594 C-71.49791054 465.12240429 -71.51682989 459.63501684 -71.53134155 454.14753723 C-71.55417556 443.40018554 -71.54468503 432.65309382 -71.52384069 421.90574729 C-71.50756125 413.17171904 -71.50335602 404.43776177 -71.50780678 395.70372009 C-71.50843745 394.4609766 -71.50906813 393.2182331 -71.50971792 391.93783072 C-71.51106396 389.41327582 -71.51244353 386.88872094 -71.51385627 384.36416608 C-71.52545485 361.36256969 -71.50392226 338.36108797 -71.46798344 315.35952807 C-71.43537758 294.36580189 -71.43083849 273.3722506 -71.45063782 252.37850952 C-71.45568076 247.0025051 -71.46068536 241.62650065 -71.46538067 236.25049591 C-71.46595885 235.58862764 -71.46653703 234.92675936 -71.46713273 234.24483447 C-71.48200026 216.69791554 -71.47362345 199.15100922 -71.45831519 181.60409307 C-71.45615224 179.08878932 -71.45400314 176.57348555 -71.45186806 174.05818176 C-71.45080169 172.82058185 -71.44973533 171.58298194 -71.44863665 170.307879 C-71.44216531 161.58364857 -71.44693509 152.85946548 -71.45589256 144.13523865 C-71.46642512 133.50428976 -71.45893699 122.87353341 -71.42843678 112.24262011 C-71.413302 106.81781124 -71.40615269 101.39330636 -71.42062759 95.96848869 C-71.4336385 91.00286378 -71.42357668 86.03784128 -71.39506886 81.07228607 C-71.3887871 79.27563424 -71.39093271 77.47892914 -71.4023393 75.68230253 C-71.49666991 59.5011598 -71.49666991 59.5011598 -67.20566779 53.69506884 C-64.18325533 50.9780351 -61.43823427 50.12977994 -57.4342804 50.15390015 C-56.17342621 50.15412674 -56.17342621 50.15412674 -54.88710022 50.15435791 C-53.98904663 50.16468048 -53.09099304 50.17500305 -52.16572571 50.18563843 C-50.77586456 50.18988327 -50.77586456 50.18988327 -49.35792542 50.19421387 C-46.40310162 50.20539482 -43.44858266 50.23049566 -40.49385071 50.25595093 C-38.48864676 50.26598342 -36.48343805 50.2751088 -34.47822571 50.28329468 C-29.5666502 50.30532735 -24.65530211 50.33984298 -19.74385071 50.38095093 C-19.76479797 49.17036011 -19.78574524 47.95976929 -19.80732727 46.7124939 C-19.87991611 42.20626732 -19.92571906 37.70009209 -19.96357727 33.19345093 C-19.98364977 31.24577127 -20.01091402 29.29815156 -20.04560852 27.35067749 C-20.09431923 24.54551372 -20.11686311 21.74114906 -20.13447571 18.93563843 C-20.15512085 18.06978119 -20.17576599 17.20392395 -20.19703674 16.31182861 C-20.1990475 10.85175783 -19.49988441 7.63314017 -15.74385071 3.38095093 C-10.96861893 -0.58667957 -5.90087163 -0.03852352 0 0 Z " fill="#183D56" transform="translate(689.7438507080078,761.6190490722656)"/>
<path d="M0 0 C1.29490356 0.00237671 2.58980713 0.00475342 3.9239502 0.00720215 C25.70885485 0.06941224 47.0132388 1.30547106 68.5625 4.4375 C70.18575195 4.6538208 70.18575195 4.6538208 71.84179688 4.87451172 C100.22375158 8.6633649 128.5415504 16.07570674 155.5625 25.4375 C157.04632718 25.93263434 158.53066699 26.42623628 160.015625 26.91796875 C175.95021088 32.27370822 191.37776791 39.1009046 206.75 45.875 C207.47372803 46.19259277 208.19745605 46.51018555 208.94311523 46.83740234 C212.65289996 48.49202412 216.10105111 50.32188691 219.5625 52.4375 C221.12624155 53.28857922 222.69452816 54.13132645 224.265625 54.96875 C235.3700326 60.90169646 246.13375968 67.09387773 256.58642578 74.11279297 C258.56968658 75.44231769 260.56258521 76.75611297 262.55859375 78.06640625 C270.0427798 82.99239876 277.39142667 88.06174517 284.5625 93.4375 C285.08054199 93.82405762 285.59858398 94.21061523 286.13232422 94.60888672 C292.72660868 99.54334535 299.02842999 104.63199237 305.09375 110.21484375 C308.60698115 113.37786357 312.28183572 116.32824676 315.953125 119.3046875 C321.42245737 123.77512982 326.58639985 128.42415359 331.5625 133.4375 C332.43648437 134.29988281 333.31046875 135.16226563 334.2109375 136.05078125 C338.82758565 140.62113064 343.3458099 145.20974815 347.5625 150.15625 C349.7316467 152.63043295 351.97123433 155.02684096 354.22387695 157.42480469 C360.28873477 163.88453927 366.08631065 170.46422291 371.5625 177.4375 C372.36171875 178.45328125 373.1609375 179.4690625 373.984375 180.515625 C419.76936882 239.1586606 451.34037326 308.4486549 465.5625 381.4375 C465.80049316 382.65099121 466.03848633 383.86448242 466.28369141 385.11474609 C472.12077021 415.58648181 473.83111174 445.54762207 473.875 476.5 C473.88051376 478.36125015 473.88051376 478.36125015 473.88613892 480.26010132 C473.91940827 501.77113986 473.1713574 523.3342179 469.875 544.625 C469.62943359 546.2488562 469.62943359 546.2488562 469.37890625 547.90551758 C467.15287951 561.90066692 463.85572645 575.66284866 460.5625 589.4375 C460.1851205 591.06485469 459.80863752 592.69241792 459.43359375 594.3203125 C457.31196004 603.36642285 454.48586923 612.12221689 451.44384766 620.89208984 C450.47803075 623.68145468 449.52602082 626.47535475 448.57421875 629.26953125 C447.88344533 631.28407127 447.19204617 633.29839685 446.5 635.3125 C446.18385742 636.23877197 445.86771484 637.16504395 445.54199219 638.11938477 C436.91228711 663.02382851 424.98399326 686.80483548 411.5625 709.4375 C411.00933105 710.38334961 410.45616211 711.32919922 409.88623047 712.30371094 C409.34498535 713.2218457 408.80374023 714.13998047 408.24609375 715.0859375 C407.51024048 716.33769775 407.51024048 716.33769775 406.75952148 717.61474609 C406.36450439 718.21625488 405.9694873 718.81776367 405.5625 719.4375 C405.2325 719.4375 404.9025 719.4375 404.5625 719.4375 C404.56152319 718.49393988 404.56054638 717.55037977 404.55953997 716.57822692 C404.50141672 660.68826125 404.42753053 604.79833454 404.33351372 548.90841716 C404.32223506 542.20164029 404.31110333 535.49486318 404.30004883 528.78808594 C404.29894626 528.12067581 404.2978437 527.45326568 404.29670772 526.765631 C404.2610299 505.12726663 404.2350575 483.48890381 404.21411031 461.85052059 C404.19192438 438.9869119 404.15869611 416.12333815 404.11379844 393.25976193 C404.08725419 379.56027936 404.06957925 365.86084375 404.06315396 352.16133673 C404.05790856 342.77439808 404.04172018 333.38751857 404.01683434 324.00061159 C404.00279027 318.58022619 403.99365937 313.15994675 403.99749184 307.73954201 C404.00089222 302.78000364 403.99059416 297.82069191 403.96926448 292.86119999 C403.96397907 291.06434304 403.96377995 289.26746267 403.96910437 287.47060584 C403.97559491 285.03238244 403.96374703 282.59491219 403.94726086 280.15675163 C403.9566759 279.10468114 403.9566759 279.10468114 403.96628115 278.03135669 C403.90901835 273.44894948 402.95953721 270.333727 400.5625 266.4375 C395.67208827 262.04869248 391.48373772 261.83723395 385.2265625 261.828125 C384.34721039 261.81158875 383.46785828 261.79505249 382.56185913 261.77801514 C379.77033408 261.72967086 376.97935324 261.70819465 374.1875 261.6875 C372.28773324 261.65932892 370.38799168 261.6293999 368.48828125 261.59765625 C363.846399 261.52391566 359.20481645 261.47425827 354.5625 261.4375 C354.5531543 260.25720215 354.54380859 259.0769043 354.53417969 257.86083984 C354.49419352 253.46593002 354.42841085 249.07171387 354.35498047 244.67724609 C354.3268208 242.77824846 354.30558142 240.8791347 354.29150391 238.97998047 C354.27000482 236.24386362 354.22331992 233.50913548 354.171875 230.7734375 C354.17064636 229.92945404 354.16941772 229.08547058 354.16815186 228.21591187 C354.03629158 222.86371811 353.27420455 219.57342151 349.5625 215.4375 C344.10202049 211.81496081 339.06402281 212.01248759 332.74308777 212.04981995 C331.1056765 212.04174164 331.1056765 212.04174164 329.43518621 212.03350013 C325.77593081 212.01918875 322.11703554 212.02633256 318.45776367 212.03344727 C315.8342459 212.02774506 313.21073061 212.02078139 310.58721924 212.01264954 C304.19746971 211.99545666 297.80781851 211.9946233 291.41805186 211.99986244 C286.21810164 212.00390796 281.01818042 212.00245601 275.81823158 211.99711418 C275.07738064 211.99636576 274.33652969 211.99561734 273.57322872 211.99484624 C272.06794235 211.99331468 270.56265598 211.99177633 269.05736963 211.99023127 C254.93839173 211.97650203 240.81946923 211.9819447 226.7004926 211.99341648 C213.81481622 212.00332785 200.92928388 211.99044536 188.04362973 211.96648229 C174.79168734 211.9420254 161.53981182 211.93250087 148.28784734 211.93913502 C140.85659658 211.94261542 133.42545624 211.94047477 125.99422264 211.92288399 C119.66117478 211.90807845 113.32831489 211.90763336 106.99527039 211.9249549 C103.77078809 211.93340341 100.54670523 211.93355574 97.32222939 211.92030334 C68.12680762 211.80954803 43.19362228 218.1666338 20.5625 237.4375 C19.76070312 238.03046875 18.95890625 238.6234375 18.1328125 239.234375 C14.92443342 241.98441421 12.53572283 245.07529331 10 248.4375 C7.03532405 252.33602849 4.14195327 256.0686028 0.5625 259.4375 C-0.03175781 258.55449219 -0.62601563 257.67148437 -1.23828125 256.76171875 C-9.343017 244.93734631 -18.22775577 235.20376243 -30.4375 227.4375 C-31.49904297 226.68919922 -31.49904297 226.68919922 -32.58203125 225.92578125 C-38.13745456 222.21892262 -44.05699286 219.92036368 -50.3125 217.6875 C-51.12638184 217.39359375 -51.94026367 217.0996875 -52.77880859 216.796875 C-63.05333368 213.27767196 -73.2808497 212.13641764 -84.09715271 212.17680359 C-85.20643712 212.17297804 -86.31572152 212.16915249 -87.45862061 212.16521102 C-91.14100166 212.15496886 -94.82322423 212.15885628 -98.50561523 212.1628418 C-101.15934253 212.1584907 -103.81305858 212.1533701 -106.46678162 212.14735413 C-112.90380277 212.13465988 -119.3407821 212.13280647 -125.77781367 212.13515439 C-131.00870587 212.13694214 -136.23958545 212.13517816 -141.47047615 212.13092995 C-142.21675419 212.13033476 -142.96303223 212.12973957 -143.73192476 212.12912634 C-145.2481877 212.12791454 -146.76445063 212.12670041 -148.28071357 212.12548397 C-162.46944624 212.11463067 -176.65815509 212.11676156 -190.84688909 212.12286881 C-203.82756337 212.12804691 -216.80816281 212.1167551 -229.78882229 212.09777059 C-243.13128984 212.07840684 -256.47372195 212.07013293 -269.81620365 212.07389385 C-277.30173877 212.07580672 -284.78721004 212.0733091 -292.27273369 212.05917931 C-298.63852145 212.04728387 -305.00420597 212.0458406 -311.36999511 212.05796947 C-314.61727821 212.06386859 -317.8643327 212.06330909 -321.11161041 212.05296707 C-324.63016154 212.04256655 -328.14820053 212.05054647 -331.66673279 212.0632782 C-332.69453918 212.05590391 -333.72234558 212.04852963 -334.78129762 212.04093188 C-341.60075001 212.08638318 -341.60075001 212.08638318 -347.4375 215.4375 C-351.17393993 219.83689801 -350.90886229 224.39349146 -350.94921875 229.89453125 C-350.97614555 231.24897591 -350.97614555 231.24897591 -351.00361633 232.63078308 C-351.05763021 235.50380844 -351.09158637 238.37666851 -351.125 241.25 C-351.15818096 243.20249691 -351.19267134 245.15497204 -351.22851562 247.10742188 C-351.3133516 251.88399516 -351.38020536 256.66052018 -351.4375 261.4375 C-352.68362061 261.45208252 -353.92974121 261.46666504 -355.21362305 261.48168945 C-359.84509712 261.539743 -364.47608862 261.61697576 -369.10717773 261.69995117 C-371.11002764 261.73316727 -373.1129704 261.76120952 -375.1159668 261.78393555 C-377.99828594 261.81754234 -380.87975668 261.86986148 -383.76171875 261.92578125 C-384.65461105 261.93217117 -385.54750336 261.9385611 -386.467453 261.94514465 C-391.19766499 262.05654411 -394.74009575 262.16570247 -398.4375 265.4375 C-401.24225517 270.03501099 -401.86948998 273.87920059 -401.82226086 279.15675163 C-401.82998572 280.29919079 -401.82998572 280.29919079 -401.83786663 281.46470952 C-401.85149432 284.01959643 -401.84379808 286.57397016 -401.83622742 289.12887573 C-401.84166611 290.97784402 -401.84841735 292.82680883 -401.85636932 294.67576802 C-401.87442553 299.75875584 -401.87383377 304.84159779 -401.87023985 309.92461014 C-401.86961694 315.4051526 -401.88622731 320.88564572 -401.90075684 326.36616516 C-401.92356779 335.86226642 -401.93543226 345.35833093 -401.93988609 354.85445786 C-401.94634139 368.58429612 -401.96926788 382.3140679 -401.99622939 396.0438794 C-402.03952343 418.31895604 -402.06950088 440.59403386 -402.09106445 462.86914062 C-402.11204458 484.50880303 -402.13930001 506.14844267 -402.17504883 527.78808594 C-402.17614831 528.45513977 -402.17724778 529.12219361 -402.17838058 529.8094612 C-402.19052522 537.17300722 -402.20284164 544.53655294 -402.21522844 551.90009856 C-402.30845059 607.41254545 -402.38003139 662.92500538 -402.4375 718.4375 C-405.81455805 715.17286359 -408.3031141 711.77859014 -410.6875 707.75 C-411.07663574 707.09717041 -411.46577148 706.44434082 -411.86669922 705.77172852 C-415.50668325 699.53945566 -418.56012387 693.08180765 -421.55078125 686.51953125 C-423.17071623 682.9701248 -424.93808522 679.51847997 -426.75 676.0625 C-431.89842506 665.85990022 -435.96266309 655.16647941 -440.18310547 644.55615234 C-441.20795129 642.00819974 -442.26177738 639.47928294 -443.34765625 636.95703125 C-450.06983832 621.06134507 -454.04503501 604.08875827 -458.4375 587.4375 C-458.72431641 586.35903809 -459.01113281 585.28057617 -459.30664062 584.16943359 C-463.09866636 569.75423288 -465.49794162 555.20798304 -467.4375 540.4375 C-467.62388552 539.07726996 -467.81058073 537.71708233 -467.99755859 536.35693359 C-473.43345202 496.18772049 -473.83047435 454.63444005 -468.4375 414.4375 C-468.29296387 413.29152344 -468.14842773 412.14554688 -467.99951172 410.96484375 C-458.51848783 336.46058512 -430.24778672 263.5354884 -386.4375 202.4375 C-385.22777104 200.68846447 -384.01928164 198.93857039 -382.8125 197.1875 C-371.44046533 181.05258963 -359.0234934 165.88869047 -345.3984375 151.609375 C-343.61144801 149.72751098 -341.9762564 147.86051363 -340.3515625 145.828125 C-336.5073496 141.02678154 -331.89790254 136.96180723 -327.375 132.8125 C-326.52736084 132.03362427 -326.52736084 132.03362427 -325.66259766 131.23901367 C-324.49297478 130.16438802 -323.32305213 129.09008855 -322.15283203 128.01611328 C-320.5329171 126.52531198 -318.91966249 125.02769317 -317.30859375 123.52734375 C-310.89036017 117.56555024 -304.29602967 111.89104785 -297.4375 106.4375 C-296.90930664 106.01500977 -296.38111328 105.59251953 -295.83691406 105.15722656 C-275.08409233 88.57193004 -253.42101344 73.85304241 -230.17236328 60.95996094 C-227.40583542 59.41987276 -224.65424517 57.85510691 -221.90234375 56.2890625 C-154.78624376 18.52836194 -76.77341116 -0.3747708 0 0 Z " fill="#B3DBE1" transform="translate(1021.4375,550.5625)"/>
<path d="M0 0 C1.02761948 -0.00085602 2.05523895 -0.00171204 3.11399841 -0.00259399 C6.56658667 -0.00424856 10.01912638 0.00127348 13.47171021 0.00672913 C15.9855302 0.00703546 18.49935028 0.00690197 21.01317024 0.00636387 C27.06525145 0.00616091 33.11731388 0.01044513 39.16939039 0.0168652 C46.17144987 0.02407038 53.17350417 0.02486023 60.17556763 0.02565002 C78.65856152 0.03089854 97.1415521 0.04485967 115.62454224 0.05775452 C156.91579224 0.07837952 198.20704224 0.09900452 240.74954224 0.12025452 C240.74954224 135.75025452 240.74954224 271.38025452 240.74954224 411.12025452 C113.81204224 411.43275452 113.81204224 411.43275452 73.78103638 411.50819397 C61.90467945 411.54477273 61.90467945 411.54477273 50.02833557 411.58526611 C44.75240429 411.60315019 39.47653098 411.61304358 34.20057678 411.61737061 C27.45594103 411.62293325 20.71151346 411.64392681 13.96693695 411.67441595 C11.50094557 411.68318326 9.03493039 411.68706118 6.56892407 411.68529379 C-22.3756108 411.67084165 -47.04316349 416.17322686 -68.67623901 436.68666077 C-70.25045776 438.12025452 -70.25045776 438.12025452 -71.25045776 438.12025452 C-71.36497268 389.8384644 -71.45304196 341.5566887 -71.50578441 293.27478948 C-71.51203773 287.57101523 -71.51850936 281.86724125 -71.52511597 276.16346741 C-71.52642752 275.02797784 -71.52773907 273.89248826 -71.52909037 272.72258992 C-71.55083015 254.3515803 -71.59024383 235.98064913 -71.63622174 217.60968601 C-71.68302606 198.75084152 -71.71076157 179.89203804 -71.72090024 161.03313786 C-71.72775113 149.40187473 -71.74936699 137.77083339 -71.7900401 126.13963855 C-71.81652752 118.15709612 -71.82444518 110.17466788 -71.81796465 102.19208472 C-71.8147711 97.59069399 -71.81956855 92.98969006 -71.84648514 88.38836861 C-71.87099991 84.16656493 -71.87192872 79.94540441 -71.85495224 75.72356976 C-71.85285729 74.20513028 -71.85904501 72.68664897 -71.87487368 71.16829055 C-72.01731536 56.64727913 -68.67374247 44.13277138 -60.25045776 32.12025452 C-59.72709839 31.36357483 -59.20373901 30.60689514 -58.66452026 29.82728577 C-47.76695972 14.96465038 -31.73578882 4.44490974 -13.69164848 0.57088566 C-9.11248092 -0.02876594 -4.6133064 -0.0140133 0 0 Z " fill="#B4DBE1" transform="translate(1108.2504577636719,789.8797454833984)"/>
<path d="M0 0 C40.981875 -0.061875 81.96375 -0.12375 124.1875 -0.1875 C137.12090576 -0.21481201 150.05431152 -0.24212402 163.37963867 -0.27026367 C179.19006348 -0.28381348 179.19006348 -0.28381348 186.59492493 -0.28633118 C191.75938683 -0.28912267 196.92377784 -0.30010123 202.08821106 -0.31672668 C208.68370461 -0.33792745 215.27909053 -0.34346283 221.87462485 -0.33921683 C224.29021444 -0.34010421 226.7058089 -0.34601909 229.12137067 -0.35764539 C243.83931956 -0.4251713 257.62034997 -0.46235027 271 6.5 C271.66443115 6.83966797 272.3288623 7.17933594 273.01342773 7.52929688 C289.73087171 16.48571189 303.28650851 31.73047103 309.08861547 49.87625116 C311.8488363 59.17020284 312.70375885 67.67318285 312.60127258 77.35670471 C312.60345995 78.9264308 312.60785061 80.49615505 312.61421841 82.06586975 C312.62527116 86.32609524 312.60557771 90.58567883 312.58032811 94.84582269 C312.55855532 99.45974353 312.56605531 104.07363373 312.56983948 108.68759155 C312.57244993 116.66390489 312.55688145 124.64001232 312.52865028 132.61627388 C312.48786062 144.14830025 312.4749773 155.68022796 312.46871033 167.21231865 C312.45779131 185.92635142 312.4245823 204.64027467 312.37719727 223.35424805 C312.33123956 241.52351334 312.2958781 259.69274879 312.2746582 277.86206055 C312.27334459 278.98369158 312.27203097 280.10532261 312.27067754 281.26094247 C312.26415194 286.88833636 312.2578335 292.51573046 312.25161803 298.1431247 C312.1998596 344.76215895 312.11185979 391.3810738 312 438 C310.71317304 437.03969278 309.4270032 436.07850496 308.14111328 435.11694336 C307.06665451 434.31419228 307.06665451 434.31419228 305.9704895 433.495224 C303.88387715 431.91188501 301.88143221 430.24572032 299.875 428.5625 C279.29425646 412.57882976 254.97256623 411.70245946 230.1159668 411.68115234 C227.56124207 411.67173156 225.00652039 411.661451 222.45180225 411.6503849 C216.32745065 411.62597391 210.20313287 411.61026398 204.07874515 411.59880099 C196.98528307 411.5850853 189.89188973 411.55875195 182.79846191 411.5324707 C164.09484086 411.46933206 145.39116553 411.42319502 126.6875 411.375 C84.880625 411.25125 43.07375 411.1275 0 411 C0 275.37 0 139.74 0 0 Z " fill="#B5DBE2" transform="translate(697,790)"/>
<path d="M0 0 C1.32191817 0.73328711 1.32191817 0.73328711 2.67054176 1.48138809 C8.32068708 3.87753616 14.23847053 3.37035934 20.27133179 3.29779053 C21.62801371 3.292484 22.98470157 3.28854856 24.34139121 3.28586125 C27.28432489 3.27711682 30.22699038 3.25879959 33.1698246 3.23311806 C37.95862551 3.19138672 42.74739131 3.17050962 47.53633118 3.15220642 C53.58854311 3.1275316 59.64068383 3.09723263 65.6928338 3.06035158 C77.58521597 2.98796492 89.47745308 2.95271983 101.37002563 2.93096924 C103.24339374 2.92735415 105.11676181 2.92371762 106.99012983 2.92005992 C109.829014 2.91454686 112.6678982 2.9090571 115.50678258 2.90365635 C126.20375149 2.88316459 136.90070706 2.85862267 147.59765625 2.82958984 C148.57524921 2.8269493 149.55284216 2.82430875 150.56005915 2.82158819 C166.40648412 2.77737114 182.25240827 2.68893847 198.09855263 2.58691999 C214.37444654 2.48344436 230.64983023 2.43723897 246.92605364 2.44165063 C256.96253848 2.44236679 266.99667708 2.39701785 277.03262629 2.29240891 C283.91040021 2.22478748 290.78690659 2.21198321 297.6649413 2.24218872 C301.63310158 2.25792874 305.59726749 2.24931802 309.56484795 2.17491722 C332.79409273 1.7619368 332.79409273 1.7619368 338.10000658 5.46602726 C340.81012012 8.42270598 342.35522058 11.47489428 343.67336464 15.23695755 C345.71849465 21.03803241 349.69704845 24.74530585 354 29 C354.77150391 29.82177734 354.77150391 29.82177734 355.55859375 30.66015625 C367.04726656 41.85042198 384.57383812 46.49689516 400.11572266 46.35644531 C406.38342231 46.14747151 412.06651736 44.96365973 418 43 C418.83789062 42.73316406 419.67578125 42.46632813 420.5390625 42.19140625 C437.58967302 36.10190249 451.51757247 22.61009765 459.24686217 6.3821665 C461 4 461 4 463.47409844 3.37604749 C464.46858868 3.37653455 465.46307892 3.37702161 466.48770523 3.37752342 C467.63539863 3.36593488 468.78309203 3.35434634 469.96556401 3.34240663 C471.86547695 3.36148606 471.86547695 3.36148606 473.80377197 3.38095093 C475.15843988 3.37679006 476.51310252 3.37042721 477.86775088 3.36204493 C481.59880925 3.34530979 485.32920521 3.35976137 489.06022716 3.37910604 C493.08082418 3.39450285 497.10133363 3.38109394 501.12193298 3.37101746 C508.0922541 3.35738348 515.06237887 3.36172403 522.03269196 3.37784958 C532.1182589 3.40089359 542.20362864 3.39361913 552.28920206 3.37831838 C568.66140539 3.35402803 585.03354575 3.34984807 601.40576172 3.36035156 C602.3861413 3.36097539 603.36652088 3.36159921 604.37660894 3.36224194 C606.36076394 3.36351323 608.34491895 3.36478747 610.32907395 3.36606465 C611.80457071 3.36701322 611.80457071 3.36701322 613.30987549 3.36798096 C614.78662482 3.36893818 614.78662482 3.36893818 616.29320748 3.36991473 C627.21972261 3.37671609 638.14623683 3.37871162 649.07275391 3.37890625 C650.05072946 3.37892908 651.02870501 3.37895191 652.03631619 3.37897544 C668.34140571 3.3789062 684.6464713 3.36687595 700.95154929 3.34794676 C711.01142507 3.33697963 721.07117558 3.33781876 731.13104525 3.3538865 C738.02534292 3.36435133 744.91959021 3.36458305 751.81389126 3.35676835 C755.79246269 3.35267968 759.77087385 3.35361868 763.74942589 3.36770058 C767.39262831 3.38053934 771.03555978 3.37961015 774.67876336 3.36782809 C776.61900876 3.36517647 778.55925698 3.37736685 780.49946237 3.39010656 C786.77245985 3.35558686 791.46889341 3.06236772 797 0 C794.39443263 7.16531028 790.18567393 13.39463313 785.875 19.625 C785.39417969 20.32085205 784.91335938 21.0167041 784.41796875 21.73364258 C774.65866279 35.74983741 763.80083603 48.84239516 752.30224609 61.46240234 C750.85717333 63.05520046 749.41953778 64.65481165 747.99291992 66.26416016 C742.63854839 72.29578188 737.0765222 78.07943013 731.36108398 83.76928711 C729.93160283 85.19337492 728.50759489 86.62278044 727.08398438 88.05273438 C722.4136316 92.71658701 717.69946482 97.25810622 712.68725586 101.5534668 C710.51145949 103.4188399 708.41664806 105.36701302 706.3125 107.3125 C700.47535221 112.56593301 694.28571466 117.30500741 688 122 C687.27570801 122.54350098 686.55141602 123.08700195 685.80517578 123.64697266 C631.81015775 164.10084947 571.70792254 192.48002463 506 208 C505.34029205 208.1578447 504.68058411 208.31568939 504.00088501 208.47831726 C493.26356126 211.03235187 482.56537436 212.95597226 471.61523438 214.328125 C469.2629986 214.62336847 466.91277448 214.93175541 464.5625 215.2421875 C459.71336005 215.87383642 454.85877214 216.44779147 450 217 C449.16400269 217.09709259 448.32800537 217.19418518 447.4666748 217.29421997 C432.76780136 218.95951439 418.18838412 219.28225763 403.40332031 219.20581055 C399.74016367 219.1874507 396.07726065 219.1853026 392.4140625 219.18554688 C374.19822566 219.15964372 356.32148495 218.52938929 338.25 216.1875 C337.56345337 216.09941071 336.87690674 216.01132141 336.16955566 215.92056274 C305.30409035 211.94384758 275.60786774 204.56379413 246 195 C245.23880859 194.75797852 244.47761719 194.51595703 243.69335938 194.26660156 C237.31312581 192.20004792 231.09760073 189.74662016 224.875 187.25 C223.76842041 186.8060791 222.66184082 186.3621582 221.52172852 185.90478516 C213.19877813 182.53859518 205.05533706 178.96388193 197 175 C196.06897461 174.54874756 196.06897461 174.54874756 195.11914062 174.08837891 C184.97412535 169.17104828 175.10633407 163.81669476 165.29125977 158.2734375 C163.67827959 157.37697457 162.05533294 156.49832759 160.42553711 155.6328125 C153.39742598 151.89219572 146.78294257 147.70450799 140.1875 143.25 C139.13868652 142.54552734 138.08987305 141.84105469 137.00927734 141.11523438 C121.59016848 130.7231122 107.03202186 119.65458368 92.89794922 107.57836914 C91.53390652 106.44400639 90.14710191 105.33680936 88.74658203 104.24780273 C80.21699565 97.53606326 72.66202984 89.93131724 65.02832031 82.23413086 C62.74600024 79.9334681 60.45569281 77.64099496 58.1640625 75.34960938 C56.68702651 73.86765927 55.21044806 72.38525297 53.734375 70.90234375 C52.72476715 69.89106667 52.72476715 69.89106667 51.69476318 68.85935974 C44.72962456 61.82529221 38.36065436 54.31754752 32.0625 46.6875 C31.49337891 46.00494141 30.92425781 45.32238281 30.33789062 44.61914062 C22.69649477 35.36541882 15.88506774 25.5117653 9.13330078 15.59887695 C7.97752776 13.90455653 6.81495226 12.21502571 5.65234375 10.52539062 C4.92144531 9.45353516 4.19054687 8.38167969 3.4375 7.27734375 C2.77621094 6.31046631 2.11492188 5.34358887 1.43359375 4.34741211 C0 2 0 2 0 0 Z " fill="#B3DBE1" transform="translate(624,1278)"/>
<path d="M0 0 C7.26 0 14.52 0 22 0 C22.00238835 1.96411677 22.00477671 3.92823355 22.00723743 5.95186901 C22.06436093 52.54737951 22.13726973 99.14284484 22.22898628 145.7383006 C22.24025482 151.46998339 22.25139321 157.20166642 22.26245117 162.93334961 C22.26465486 164.0744529 22.26685854 165.21555619 22.269129 166.39123837 C22.30452779 184.8821191 22.32937734 203.37299979 22.35034702 221.86390188 C22.37208852 240.82895132 22.40512319 259.79395668 22.44870156 278.75896865 C22.47524675 290.46694657 22.49292099 302.17486954 22.49934604 313.88287608 C22.50459116 321.9050706 22.52077857 329.9271959 22.54566566 337.94935336 C22.55971074 342.58179111 22.56884028 347.21410486 22.56500816 351.84656525 C22.5616082 356.08501867 22.57190321 360.32320685 22.59323552 364.56160591 C22.59852169 366.09734183 22.59871925 367.63310517 22.59339563 369.16884097 C22.58690666 371.2525209 22.59874934 373.33531895 22.61523914 375.41892529 C22.61713775 376.57745201 22.61903635 377.73597874 22.62099248 378.92961234 C23.1567129 383.26955098 24.76844134 385.89982359 28.00246334 388.78884125 C32.60918021 390.65019145 37.03752743 390.41094767 41.96058655 390.37854004 C43.6387599 390.38533523 43.6387599 390.38533523 45.35083574 390.3922677 C49.10778736 390.40391473 52.86438453 390.39423493 56.62133789 390.38476562 C59.31194252 390.38886979 62.00251891 390.39417522 64.69311523 390.40104675 C70.49234686 390.4136147 76.29150393 390.41558551 82.09074593 390.41069031 C90.48852827 390.40387963 98.88619835 390.41640527 107.28396063 390.43419749 C120.92619995 390.46285334 134.56842715 390.48036084 148.21069336 390.48876953 C149.4353591 390.4895303 149.4353591 390.4895303 150.68476557 390.49030644 C156.47734356 390.4938322 162.26992174 390.4969611 168.0625 390.5 C174.66723651 390.50346691 181.27197285 390.50711688 187.87670898 390.51123047 C188.69003431 390.51173308 189.50335964 390.5122357 190.34133119 390.51275355 C203.92431964 390.52151119 217.50726656 390.54197741 231.09022707 390.57071257 C239.46119093 390.58785554 247.832037 390.594494 256.20301609 390.58740652 C261.94612182 390.58321322 267.68915353 390.58962184 273.43224204 390.60420525 C276.74109572 390.6122287 280.04972912 390.61377193 283.35858727 390.60538292 C286.95607398 390.59696507 290.55307048 390.60703408 294.15052795 390.62145996 C295.18217404 390.61456603 296.21382012 390.60767209 297.27672821 390.60056925 C307.65626607 390.68123536 317.14254084 393.02307064 326.3125 397.875 C326.96283203 398.20113281 327.61316406 398.52726562 328.28320312 398.86328125 C332.83483094 401.20048075 336.97010885 403.84073216 341 407 C341 407.66 341 408.32 341 409 C341.57105469 409.23203125 342.14210938 409.4640625 342.73046875 409.703125 C356.54873845 417.59927912 361.99409192 437.5985949 366 452 C366.34227417 453.33106622 366.68105645 454.6631515 367 456 C356.65195398 453.2111649 348.06464279 447.98562626 342 439 C340.06828887 435.41781614 338.23148856 431.78379239 336.546875 428.07885742 C333.85353277 422.51879535 330.64223617 419.56199677 325 417 C321.78230457 416.01005172 318.85374061 415.87050553 315.49463272 415.8613348 C314.36814568 415.85585943 313.24165863 415.85038406 312.08103561 415.84474277 C310.22555037 415.843277 310.22555037 415.843277 308.33258057 415.84178162 C307.0215184 415.83685196 305.71045624 415.8319223 304.35966492 415.82684326 C300.71031513 415.8132561 297.06097459 415.80585904 293.41160613 415.79942851 C289.41965542 415.79129783 285.42772396 415.77742624 281.4357872 415.76427555 C273.68303407 415.73959813 265.93027636 415.72001094 258.17750476 415.70219031 C249.21190951 415.68136307 240.24634071 415.65422471 231.28076172 415.6270752 C207.60385612 415.55850286 183.92692624 415.49853006 160.25 415.4375 C107.3675 415.293125 54.485 415.14875 0 415 C0 278.05 0 141.1 0 0 Z " fill="#B2D9DE" transform="translate(647,839)"/>
<path d="M0 0 C6.93 0 13.86 0 21 0 C21 136.95 21 273.9 21 415 C-138.9375 415.25 -138.9375 415.25 -189.47241211 415.29785156 C-204.39723104 415.33106386 -204.39723104 415.33106386 -219.32203674 415.36956787 C-225.97916754 415.38660023 -232.63620006 415.39275886 -239.29335022 415.39154053 C-246.97123977 415.39017284 -254.64895944 415.40259622 -262.32679496 415.43203889 C-266.25422485 415.44666631 -270.18139038 415.45511197 -274.10884273 415.44582415 C-278.31658766 415.43601378 -282.52362012 415.45703341 -286.73130798 415.48101807 C-287.95373483 415.47325726 -289.17616167 415.46549644 -290.43563175 415.45750046 C-298.79707126 415.54172972 -305.42613765 416.67547688 -311.6875 422.5 C-313.82577891 425.37036762 -315.23000701 428.51949719 -316.75 431.75 C-321.62518263 441.77397244 -328.77256603 449.37106964 -339 454 C-341.32185216 454.70561421 -343.65371803 455.38044388 -346 456 C-341.17065401 433.62574277 -332.4956545 415.28507777 -312.77148438 402.10839844 C-309.52494446 400.07707385 -306.16413732 398.29387566 -302.75 396.5625 C-301.77643555 396.06737915 -301.77643555 396.06737915 -300.78320312 395.56225586 C-292.44509394 391.51700314 -284.80263657 390.70672153 -275.63827515 390.74171448 C-274.51269624 390.73803877 -273.38711734 390.73436307 -272.22742999 390.73057598 C-268.4658639 390.72061698 -264.70444624 390.72474263 -260.94287109 390.72875977 C-258.242095 390.72437163 -255.54133213 390.71917938 -252.84056091 390.71292114 C-247.02992621 390.7008996 -241.21931889 390.69576946 -235.40867233 390.69503975 C-227.00100143 390.69371191 -218.59339682 390.67858167 -210.18574937 390.65954458 C-196.53497392 390.62873151 -182.88419681 390.60455153 -169.23339844 390.58666992 C-168.41707725 390.58559724 -167.60075606 390.58452456 -166.75969787 390.58341938 C-157.64821071 390.57159425 -148.53672288 390.56138839 -139.42523193 390.55297852 C-136.1187744 390.54990438 -132.81231687 390.54681563 -129.50585938 390.54370117 C-128.6899298 390.54293583 -127.87400022 390.54217049 -127.03334551 390.54138196 C-113.42994604 390.52830203 -99.82659475 390.50366759 -86.22323096 390.46995777 C-77.83593608 390.44967065 -69.44874423 390.43937797 -61.06142463 390.44194698 C-55.31698313 390.44298179 -49.57262315 390.43334927 -43.8282101 390.41530795 C-40.51400765 390.40526166 -37.20002234 390.4017726 -33.88580513 390.40807533 C-30.29293721 390.4141927 -26.70058089 390.40202784 -23.10775757 390.38526917 C-22.06068079 390.39148098 -21.01360402 390.3976928 -19.93479764 390.40409285 C-13.77731045 390.35161958 -9.14245479 390.12821328 -4.55414408 385.56069666 C0.44526975 379.12317456 -0.30159033 371.38686713 -0.36076355 363.6496582 C-0.35444772 362.07944444 -0.34594231 360.50923822 -0.33544332 358.93904686 C-0.31297815 354.63575151 -0.32148745 350.33299367 -0.3351289 346.02968192 C-0.34440058 341.38487865 -0.32484165 336.74018557 -0.30880737 332.09541321 C-0.28497525 324.05186939 -0.27935667 316.00847879 -0.28615379 307.96490479 C-0.29595483 296.33532192 -0.27821742 284.70590892 -0.25378648 273.07635355 C-0.21489439 254.2076369 -0.19823379 235.33896883 -0.19555664 216.47021484 C-0.19290862 198.14239001 -0.17978874 179.81462196 -0.15258789 161.48681641 C-0.15091451 160.35684687 -0.14924113 159.22687733 -0.14751705 158.0626663 C-0.1390575 152.3938681 -0.1303921 146.72507024 -0.12162435 141.05627251 C-0.04916823 94.03752422 -0.01316329 47.01879946 0 0 Z " fill="#B3D9E0" transform="translate(1377,839)"/>
<path d="M0 0 C0.7590309 0.00223072 1.51806181 0.00446144 2.30009365 0.00675976 C3.10061877 0.00519977 3.90114389 0.00363978 4.72592735 0.00203252 C7.42913455 -0.00198077 10.13228635 0.00121342 12.83549404 0.00434887 C14.76502929 0.00299498 16.69456428 0.00121511 18.62409878 -0.00096118 C23.88014383 -0.00553692 29.13616936 -0.00374539 34.39221478 -0.0005821 C39.87973746 0.00194078 45.36725841 -0.00039583 50.85478115 -0.00196826 C60.071988 -0.00379017 69.28918685 -0.0013831 78.50639248 0.00337231 C89.17925152 0.00881497 99.85209145 0.00705233 110.52495003 0.00154591 C119.67055933 -0.00298463 128.81616286 -0.00363607 137.96177292 -0.00101542 C143.43188001 0.00054768 148.9019781 0.0007402 154.37208462 -0.00255191 C159.51344991 -0.00542976 164.65479046 -0.00345654 169.79615307 0.00234234 C171.68887573 0.00367041 173.58160046 0.00327505 175.47432232 0.00107968 C178.0466458 -0.00163002 180.61888867 0.00174706 183.19120693 0.00675976 C183.95023784 0.00452904 184.70926874 0.00229832 185.49130058 0 C190.63150044 0.01959356 190.63150044 0.01959356 191.74565029 1.13374341 C191.844816 2.75631885 191.87644806 4.38314172 191.87846279 6.00874341 C191.87975185 6.99358716 191.88104092 7.97843091 191.88236904 8.99311841 C191.87850185 10.02952466 191.87463467 11.06593091 191.87065029 12.13374341 C191.87451748 13.17014966 191.87838467 14.20655591 191.88236904 15.27436841 C191.88043545 16.75163403 191.88043545 16.75163403 191.87846279 18.25874341 C191.87733486 19.16882153 191.87620693 20.07889966 191.87504482 21.01655591 C191.74565029 23.13374341 191.74565029 23.13374341 190.74565029 24.13374341 C188.21859399 24.23370623 185.71880515 24.26815543 183.19120693 24.26072705 C182.39068181 24.26228704 181.59015669 24.26384703 180.76537323 24.26545429 C178.06216603 24.26946758 175.35901423 24.26627339 172.65580654 24.26313794 C170.72627129 24.26449183 168.7967363 24.2662717 166.86720181 24.268448 C161.61115675 24.27302373 156.35513122 24.2712322 151.09908581 24.26806891 C145.61156313 24.26554603 140.12404218 24.26788264 134.63651943 24.26945508 C125.41931259 24.27127698 116.20211374 24.26886991 106.9849081 24.2641145 C96.31204907 24.25867184 85.63920913 24.26043448 74.96635056 24.2659409 C65.82074126 24.27047144 56.67513772 24.27112288 47.52952766 24.26850224 C42.05942058 24.26693913 36.58932248 24.26674661 31.11921597 24.27003872 C25.97785067 24.27291657 20.83651012 24.27094335 15.69514751 24.26514447 C13.80242485 24.2638164 11.90970012 24.26421176 10.01697826 24.26640713 C7.44465478 24.26911683 4.87241192 24.26573975 2.30009365 24.26072705 C1.54106275 24.26295777 0.78203184 24.26518849 0 24.26748681 C-5.14019986 24.24789325 -5.14019986 24.24789325 -6.25434971 23.13374341 C-6.35351541 21.51116796 -6.38514748 19.88434509 -6.38716221 18.25874341 C-6.38845127 17.27389966 -6.38974033 16.28905591 -6.39106846 15.27436841 C-6.38720127 14.23796216 -6.38333408 13.20155591 -6.37934971 12.13374341 C-6.38515049 10.57913403 -6.38515049 10.57913403 -6.39106846 8.99311841 C-6.3897794 8.00827466 -6.38849033 7.02343091 -6.38716221 6.00874341 C-6.38603428 5.09866528 -6.38490635 4.18858716 -6.38374424 3.25093091 C-6.12738161 -0.94374222 -3.60581993 0.01374477 0 0 Z " fill="#193E56" transform="translate(1099.2543497085571,865.8662565946579)"/>
<path d="M0 0 C0.66 0 1.32 0 2 0 C2 147.84 2 295.68 2 448 C1.34 448 0.68 448 0 448 C-1.10334852 409.7226545 -1.14983144 371.45682895 -1.13529945 333.16767008 C-1.13298469 326.891319 -1.13274341 320.61497062 -1.13381577 314.33861923 C-1.133969 313.43123287 -1.13412223 312.52384651 -1.13428011 311.58896359 C-1.13459998 309.74305623 -1.13492419 307.89714886 -1.1352527 306.0512415 C-1.13807955 288.88663677 -1.13486646 271.72203744 -1.12945233 254.55743359 C-1.12500067 239.99710796 -1.12575219 225.43679033 -1.13037109 210.87646484 C-1.13579105 193.78408168 -1.13779096 176.69170324 -1.13475883 159.59931934 C-1.13444044 157.75623441 -1.13412607 155.91314948 -1.13381577 154.07006454 C-1.13366149 153.16433421 -1.13350721 152.25860387 -1.13334826 151.32542715 C-1.13250399 145.10418904 -1.13391791 138.88295409 -1.13629532 132.66171646 C-1.15178281 88.43119189 -0.84439125 44.22307574 0 0 Z " fill="#2B5161" transform="translate(1424,823)"/>
<path d="M0 0 C36.52698188 -0.022979 73.05396247 -0.04055512 109.58095011 -0.05106533 C113.91090035 -0.05231577 118.24085057 -0.05361012 122.57080078 -0.05493164 C123.43267575 -0.05519395 124.29455071 -0.05545626 125.1825431 -0.05572652 C139.06719238 -0.06005657 152.95183745 -0.06792919 166.83648425 -0.0771528 C181.12451531 -0.08656394 195.41254419 -0.09207126 209.70057821 -0.09408849 C218.48953946 -0.09544837 227.27848878 -0.09971428 236.06744635 -0.10791647 C242.12608723 -0.11327638 248.1847221 -0.11478374 254.24336517 -0.11350138 C257.71864488 -0.11287214 261.19390404 -0.11370912 264.66917992 -0.11920547 C284.13364946 -0.14535119 303.55082982 0.28730566 323 1 C323 1.66 323 2.32 323 3 C322.13326285 2.99943042 322.13326285 2.99943042 321.24901587 2.99884933 C286.85144609 2.97637475 252.45387801 2.95926506 218.05630246 2.94893467 C213.90789629 2.94768426 209.75949013 2.94638991 205.61108398 2.94506836 C204.78535871 2.94480605 203.95963343 2.94454374 203.10888617 2.94427348 C189.81336626 2.93994556 176.51785075 2.93207416 163.22233344 2.9228472 C149.53659417 2.91343005 135.85085719 2.9079275 122.16511482 2.90591151 C114.49632383 2.90467345 106.82754203 2.90172342 99.15875435 2.89426994 C90.55838867 2.8861135 81.95803506 2.88321133 73.35766602 2.88647461 C72.68657136 2.88665295 72.01547671 2.88683129 71.32404585 2.88701503 C54.31764189 2.89318594 37.3274271 2.97826844 20.3356638 3.73712826 C13.77930608 4.01720444 7.50840267 3.88172885 1 3 C0.67 2.01 0.34 1.02 0 0 Z " fill="#13374A" transform="translate(1077,1254)"/>
<path d="M0 0 C82.5 0 165 0 250 0 C249.67 0.66 249.34 1.32 249 2 C244.04950974 3.22086636 239.09827917 3.14063342 234.03408813 3.12698364 C233.14186912 3.12854363 232.2496501 3.13010362 231.33039415 3.13171089 C228.34605968 3.1356936 225.36177624 3.13254168 222.37744141 3.12939453 C220.23505626 3.13074988 218.09267134 3.13253056 215.95028687 3.13470459 C210.13156581 3.13926579 204.31286247 3.13749401 198.4941411 3.1343255 C192.39439884 3.13179188 186.29465809 3.13414255 180.19491577 3.13571167 C169.94065072 3.13753181 159.68639287 3.13513256 149.43212891 3.13037109 C137.60691708 3.12494328 125.78172254 3.12668096 113.95651114 3.1321975 C103.78722061 3.1367504 93.61793526 3.13736811 83.44864404 3.13475883 C77.38289061 3.13320615 71.31714527 3.13297421 65.25139236 3.13629532 C59.53701352 3.1392052 53.82265668 3.13714159 48.10828018 3.13140106 C46.02189673 3.13008944 43.9355114 3.13044007 41.84912872 3.13266373 C11.59853812 3.16190651 11.59853812 3.16190651 2 1 C1.67 1.66 1.34 2.32 1 3 C0.67 2.01 0.34 1.02 0 0 Z " fill="#103447" transform="translate(697,1202)"/>
<path d="M0 0 C84.15 0 168.3 0 255 0 C254.67 0.66 254.34 1.32 254 2 C242.42042176 3.97488594 230.02626949 3.14852803 218.31738281 3.14526367 C216.15735822 3.14826129 213.99733416 3.15166519 211.83731079 3.15544128 C206.0065358 3.16422349 200.17577551 3.16661693 194.34499454 3.16725707 C190.69273033 3.16797078 187.04046978 3.17011114 183.38820648 3.17275429 C170.62013006 3.1819881 157.85206403 3.18609158 145.08398438 3.18530273 C133.22455007 3.18470225 121.36516129 3.19525343 109.5057385 3.2110464 C99.28699826 3.22416453 89.06827284 3.22948485 78.84952426 3.22884732 C72.76257392 3.22859362 66.6756641 3.2313738 60.58872223 3.24202538 C54.85944003 3.25177879 49.13023652 3.25173639 43.40095139 3.24450874 C41.31217457 3.2434719 39.22339266 3.24577149 37.13462448 3.2518692 C24.60892234 3.28603395 12.41707194 2.68716634 0 1 C0 0.67 0 0.34 0 0 Z " fill="#0F3346" transform="translate(1094,1202)"/>
<path d="M0 0 C0.33 0 0.66 0 1 0 C1.0466626 25.78144369 1.08196062 51.56288107 1.10362434 77.34435844 C1.11394928 89.31438481 1.12803279 101.28438498 1.15087891 113.25439453 C1.1707756 123.68402915 1.18370757 134.11364481 1.18817699 144.54329789 C1.19079069 150.06880485 1.19695915 155.59425754 1.21146011 161.11974716 C1.22498532 166.3152847 1.22923295 171.51074536 1.22621536 176.70629883 C1.2267678 178.61795595 1.23077526 180.52961552 1.23841095 182.44125748 C1.24829311 185.04181607 1.24599371 187.64208053 1.24050903 190.24264526 C1.24633472 191.00722734 1.2521604 191.77180942 1.25816262 192.55956066 C1.22824242 197.77175758 1.22824242 197.77175758 -1 200 C-1.14639143 193.62191149 -1.28820803 187.24373151 -1.42724609 180.86547852 C-1.47476328 178.70823002 -1.52322416 176.55100205 -1.57275391 174.39379883 C-2.13744303 149.73762781 -2.0145766 125.12663708 -1.57275391 100.46917725 C-1.11687291 74.93323294 -0.89789593 49.41325417 -1.03710938 23.87255859 C-1.04133911 22.78092407 -1.04556885 21.68928955 -1.04992676 20.5645752 C-1.05800938 18.54933383 -1.07027463 16.53410254 -1.08776855 14.5189209 C-1.10587312 9.56251557 -0.85092877 4.8853027 0 0 Z " fill="#0C3348" transform="translate(695,793)"/>
<path d="M0 0 C0.33 0 0.66 0 1 0 C1 97.68 1 195.36 1 296 C0.67 296 0.34 296 0 296 C-0.33 283.13 -0.66 270.26 -1 257 C-1.33 257 -1.66 257 -2 257 C-2.18451025 247.58997722 -2.18451025 247.58997722 -1 243 C-1.33 243 -1.66 243 -2 243 C-2 240.36 -2 237.72 -2 235 C-1.67 235 -1.34 235 -1 235 C-0.67 157.45 -0.34 79.9 0 0 Z " fill="#103649" transform="translate(1035,928)"/>
<path d="M0 0 C0 0.33 0 0.66 0 1 C-1.22976563 1.09087891 -1.22976563 1.09087891 -2.484375 1.18359375 C-4.10085938 1.30927734 -4.10085938 1.30927734 -5.75 1.4375 C-6.81734375 1.51871094 -7.8846875 1.59992187 -8.984375 1.68359375 C-11.83768607 1.90482442 -11.83768607 1.90482442 -13.90234375 2.50390625 C-17.16289164 3.27502279 -20.47719379 3.33369664 -23.8125 3.5 C-27.8040876 3.70239036 -31.71172833 3.95859928 -35.671875 4.52734375 C-38.65667868 4.95124193 -41.42941633 5.10370663 -44.4375 5.0625 C-45.73494141 5.04896484 -45.73494141 5.04896484 -47.05859375 5.03515625 C-47.69925781 5.02355469 -48.33992187 5.01195312 -49 5 C-44.12299998 2.24781634 -38.98398409 2.01552803 -33.5 1.375 C-32.395354 1.24311279 -31.29070801 1.11122559 -30.15258789 0.9753418 C-20.07270747 -0.14480582 -10.12686686 -0.30550325 0 0 Z " fill="#B4D3D4" transform="translate(1000,552)"/>
<path d="M0 0 C0.33 1.32 0.66 2.64 1 4 C-1.54173977 4.02716824 -4.08318415 4.04691969 -6.625 4.0625 C-7.69427734 4.07506836 -7.69427734 4.07506836 -8.78515625 4.08789062 C-12.97344438 4.10710296 -16.8728462 3.8267327 -21 3 C-14.01118307 -1.65921128 -8.04718523 -1.07683853 0 0 Z " fill="#264E5F" transform="translate(1029,1321)"/>
<path d="M0 0 C0.66 0.33 1.32 0.66 2 1 C-3.51846339 5.05279504 -8.66525397 8.35092439 -15 11 C-17.30859563 12.50838917 -19.55716375 14.07577586 -21.7890625 15.6953125 C-24.20842052 17.1229902 -26.23568826 17.60232708 -29 18 C-24.29478084 12.88175937 -18.39400611 10.03101741 -12.375 6.6875 C-11.20548807 6.02321074 -10.03621475 5.35850121 -8.8671875 4.69335938 C-7.76375 4.07654297 -6.6603125 3.45972656 -5.5234375 2.82421875 C-4.51200684 2.25791748 -3.50057617 1.69161621 -2.45849609 1.1081543 C-1.64719238 0.74246338 -0.83588867 0.37677246 0 0 Z " fill="#B3D4D6" transform="translate(803,605)"/>
<path d="M0 0 C0.66 0.33 1.32 0.66 2 1 C-3.29682829 6.55661824 -8.83146467 11.43071457 -15 16 C-15.66 15.67 -16.32 15.34 -17 15 C-12.30074712 9.01913269 -6.93732689 3.36955878 0 0 Z " fill="#B7D6D9" transform="translate(1338,1375)"/>
<path d="M0 0 C0.33 0.66 0.66 1.32 1 2 C-0.65801856 6.69771926 -2.83910951 10.34136883 -5.80859375 14.3125 C-7.51168692 16.72474999 -8.70400527 19.35166294 -10 22 C-11.28029528 24.04193079 -12.63002378 26.01589651 -14 28 C-14.33 27.34 -14.66 26.68 -15 26 C-13.88847833 23.59019692 -12.72381584 21.31451946 -11.4375 19 C-11.07197021 18.32952637 -10.70644043 17.65905273 -10.32983398 16.96826172 C-2.25340332 2.25340332 -2.25340332 2.25340332 0 0 Z " fill="#B0D3D5" transform="translate(615,785)"/>
<path d="M0 0 C-3 6 -3 6 -5.1875 6.8125 C-8.05974234 8.02522454 -10.04116574 9.58289503 -12.375 11.625 C-15.11341762 13.9421226 -18.06265388 15.94385771 -21 18 C-18.45580138 11.97426643 -6.93765221 0 0 0 Z " fill="#B3D4D5" transform="translate(735,650)"/>
<path d="M0 0 C-5.02421268 4.2673183 -8.32665833 6.29754298 -15 7 C-18.07658275 8.17837064 -21.03957878 9.55671075 -24 11 C-23 8 -23 8 -20.99047852 6.81738281 C-19.69775024 6.2658252 -19.69775024 6.2658252 -18.37890625 5.703125 C-17.44369141 5.30222656 -16.50847656 4.90132812 -15.54492188 4.48828125 C-14.06862305 3.87533203 -14.06862305 3.87533203 -12.5625 3.25 C-11.58216797 2.82589844 -10.60183594 2.40179687 -9.59179688 1.96484375 C-2.26366678 -1.13183339 -2.26366678 -1.13183339 0 0 Z " fill="#B7D5D6" transform="translate(855,583)"/>
<path d="M0 0 C0 6.75592706 -5.29985317 12.61143665 -9 18 C-10.09375 14.2578125 -10.09375 14.2578125 -9.25 11.9375 C-8.00556581 10.00862701 -6.69452571 8.54047791 -5 7 C-5.66 6.34 -6.32 5.68 -7 5 C-5.49336217 1.98672434 -2.96833589 1.38943382 0 0 Z " fill="#BAD6DA" transform="translate(1420,1278)"/>
<path d="M0 0 C1 3 1 3 -0.65234375 6.35546875 C-1.40377702 7.63889017 -2.16596501 8.91606134 -2.9375 10.1875 C-3.51661133 11.16879883 -3.51661133 11.16879883 -4.10742188 12.16992188 C-5.06253088 13.78535316 -6.03010066 15.39340525 -7 17 C-7.66 16.67 -8.32 16.34 -9 16 C-8.73755916 10.66370285 -8.73755916 10.66370285 -8 8 C-5.625 6.3125 -5.625 6.3125 -3 5 C-1.19203897 2.43389334 -1.19203897 2.43389334 0 0 Z " fill="#B2D3D4" transform="translate(1442,1239)"/>
<path d="M0 0 C0.66 0 1.32 0 2 0 C1.51781006 0.99906372 1.51781006 0.99906372 1.02587891 2.01831055 C-0.20986348 5.60996257 -0.35174878 8.95226317 -0.4140625 12.70703125 C-0.43342865 13.43242599 -0.4527948 14.15782074 -0.4727478 14.90519714 C-0.53222108 17.20751422 -0.57879845 19.50988219 -0.625 21.8125 C-0.66320958 23.37957832 -0.70226303 24.94663631 -0.7421875 26.51367188 C-0.83789563 30.34228152 -0.92204448 34.17098942 -1 38 C-1.33 38 -1.66 38 -2 38 C-2.04942899 33.07040878 -2.08573318 28.14096175 -2.10986328 23.21118164 C-2.11992237 21.53407275 -2.13357122 19.85698139 -2.15087891 18.17993164 C-2.17513152 15.76964998 -2.1864839 13.35960014 -2.1953125 10.94921875 C-2.20563507 10.19912033 -2.21595764 9.44902191 -2.22659302 8.67619324 C-2.227408 4.89699221 -2.15057067 3.22585601 0 0 Z " fill="#0E3647" transform="translate(622,817)"/>
<path d="M0 0 C5.02537717 7.53806575 3.10512759 19.23936742 3 28 C2.67 28 2.34 28 2 28 C0.38306977 18.5005349 -0.26349633 9.63225483 0 0 Z " fill="#B5D4D5" transform="translate(1491,971)"/>
<path d="M0 0 C0.66 0.66 1.32 1.32 2 2 C-2.77047491 5.39212048 -7.55419889 8.77174694 -12.4375 12 C-13.05496094 12.4125 -13.67242188 12.825 -14.30859375 13.25 C-16 14 -16 14 -19 13 C-16.99802285 10.99802285 -15.36440125 10.05108079 -12.875 8.75 C-8.24223321 6.2346404 -4.12458534 3.27044778 0 0 Z " fill="#B8D5D7" transform="translate(1289,1413)"/>
<path d="M0 0 C0.66 0.33 1.32 0.66 2 1 C-0.15381444 6.28663545 -4.42236838 9.77870367 -9 13 C-8.8125 9.6875 -8.8125 9.6875 -8 6 C-5.625 4.25 -5.625 4.25 -3 3 C-1.24850835 1.41754725 -1.24850835 1.41754725 0 0 Z " fill="#ABD4DF" transform="translate(1041,784)"/>
<path d="M0 0 C0 5.89270905 -5.82346209 10.74137804 -9.6875 14.875 C-11.71432777 16.73749038 -13.75046037 18.41699063 -16 20 C-16.66 19.67 -17.32 19.34 -18 19 C-17.5968457 18.60208252 -17.19369141 18.20416504 -16.77832031 17.79418945 C-14.93285523 15.96965943 -13.09140987 14.1411223 -11.25 12.3125 C-10.61578125 11.68666016 -9.9815625 11.06082031 -9.328125 10.41601562 C-5.98710761 7.09239937 -2.8517269 3.76629589 0 0 Z " fill="#ECFBFB" transform="translate(1375,1340)"/>
<path d="M0 0 C2.625 0.375 2.625 0.375 5 1 C5 1.66 5 2.32 5 3 C6.55855981 4.35712166 6.55855981 4.35712166 8.5 5.625 C9.1496875 6.07101562 9.799375 6.51703125 10.46875 6.9765625 C10.9740625 7.31429688 11.479375 7.65203125 12 8 C10.328125 8.71484375 10.328125 8.71484375 8 9 C5.421875 7.56640625 5.421875 7.56640625 2.75 5.5625 C1.85796875 4.90378906 0.9659375 4.24507812 0.046875 3.56640625 C-0.62859375 3.04949219 -1.3040625 2.53257813 -2 2 C-1.34 1.34 -0.68 0.68 0 0 Z " fill="#123949" transform="translate(977,1236)"/>
<path d="M0 0 C9.74217375 0.4713955 18.70060168 3.25475278 28 6 C23.6052972 7.35996009 20.03303364 6.29547962 15.6875 5.1875 C14.95337891 5.00896484 14.21925781 4.83042969 13.46289062 4.64648438 C8.94321643 3.53561503 4.46743727 2.30423202 0 1 C0 0.67 0 0.34 0 0 Z " fill="#B5D3D5" transform="translate(1122,562)"/>
<path d="M0 0 C-1.53218685 3.63061667 -3.7183144 5.9863773 -6.5 8.75 C-7.69109375 9.94882813 -7.69109375 9.94882813 -8.90625 11.171875 C-11 13 -11 13 -13 13 C-11.66342976 10.09663689 -10.15277429 7.7897189 -8.0625 5.375 C-7.55847656 4.78460937 -7.05445313 4.19421875 -6.53515625 3.5859375 C-4.53269062 1.51723255 -2.97922868 0 0 0 Z " fill="#B9D8D8" transform="translate(1372,1343)"/>
<path d="M0 0 C-0.58046812 3.50602742 -1.80123031 5.20849502 -4.3125 7.6875 C-5.20388672 8.59048828 -5.20388672 8.59048828 -6.11328125 9.51171875 C-8.10874682 11.08578165 -9.51706615 11.58891824 -12 12 C-3.26213592 0 -3.26213592 0 0 0 Z " fill="#B6D5D9" transform="translate(689,690)"/>
<path d="M0 0 C0.66 0.33 1.32 0.66 2 1 C0.57300108 2.18916577 -0.85457702 3.37764379 -2.28515625 4.5625 C-3.38762151 5.48666223 -4.47981492 6.42329537 -5.55859375 7.375 C-8.55491642 9.98997251 -11.20798683 11.77317221 -15 13 C-13.48922551 8.60868215 -10.08337724 6.68263208 -6.375 4.25 C-5.45847656 3.63318359 -5.45847656 3.63318359 -4.5234375 3.00390625 C-3.02104672 1.99448744 -1.51123091 0.9961353 0 0 Z " fill="#B8D5D7" transform="translate(756,633)"/>
<path d="M0 0 C3.16305105 2.65810615 4.54145622 5.85097893 6.25 9.5625 C6.79140625 10.71878906 7.3328125 11.87507812 7.890625 13.06640625 C8.25671875 14.03449219 8.6228125 15.00257813 9 16 C8.67 16.66 8.34 17.32 8 18 C4 13.5 4 13.5 4 9 C3.34 8.67 2.68 8.34 2 8 C0.6250851 5.09740189 0 3.23861295 0 0 Z " fill="#BED8DA" transform="translate(1448,819)"/>
<path d="M0 0 C1.15119069 3.45357208 0.85908953 6.01128919 0.1875 9.5625 C0.01605469 10.51253906 -0.15539062 11.46257813 -0.33203125 12.44140625 C-1 15 -1 15 -3 18 C-3.22027044 11.91808846 -3.08064125 6.75236112 -1 1 C-0.67 0.67 -0.34 0.34 0 0 Z " fill="#B2D5D7" transform="translate(558,941)"/>
<path d="M0 0 C0.99 0.33 1.98 0.66 3 1 C2.01 2.98 1.02 4.96 0 7 C-0.66 7 -1.32 7 -2 7 C-2.66 8.65 -3.32 10.3 -4 12 C-4.65234375 10.265625 -4.65234375 10.265625 -5 8 C-4.00390625 5.859375 -4.00390625 5.859375 -2.5625 3.75 C-2.08941406 3.04359375 -1.61632813 2.3371875 -1.12890625 1.609375 C-0.75636719 1.07828125 -0.38382813 0.5471875 0 0 Z " fill="#BCE2EB" transform="translate(1043,1263)"/>
<path d="M0 0 C0.33 0.99 0.66 1.98 1 3 C-0.546875 5.375 -0.546875 5.375 -2.75 8 C-3.46671875 8.86625 -4.1834375 9.7325 -4.921875 10.625 C-6.5590109 12.49601246 -8.20983575 14.27781667 -10 16 C-8.55797524 11.84848662 -6.4989562 8.70021555 -3.875 5.1875 C-3.15054688 4.21167969 -2.42609375 3.23585938 -1.6796875 2.23046875 C-0.84824219 1.12638672 -0.84824219 1.12638672 0 0 Z " fill="#B9D7D8" transform="translate(639,748)"/>
<path d="M0 0 C0.66 0.33 1.32 0.66 2 1 C-5.31343284 11.65671642 -5.31343284 11.65671642 -10 14 C-8.6113673 11.02245105 -6.98738657 8.48841335 -5 5.875 C-4.484375 5.19179688 -3.96875 4.50859375 -3.4375 3.8046875 C-2 2 -2 2 0 0 Z " fill="#B1D3D5" transform="translate(654,728)"/>
<path d="M0 0 C4.554787 3.80014774 8.95279259 7.65665546 13 12 C13 12.66 13 13.32 13 14 C12.34 14 11.68 14 11 14 C9.37890625 12.3203125 9.37890625 12.3203125 7.5625 10.125 C5.41599116 7.53806278 3.83223438 5.88815626 1 4 C1 3.34 1 2.68 1 2 C0.34 1.67 -0.32 1.34 -1 1 C-0.67 0.67 -0.34 0.34 0 0 Z " fill="#B7D4D5" transform="translate(1364,697)"/>
<path d="M0 0 C0.33 0.66 0.66 1.32 1 2 C-6.29840547 10.44646925 -6.29840547 10.44646925 -10 14 C-9.46823005 9.86186295 -7.22067834 7.72917682 -4.4375 4.75 C-3.61121094 3.85796875 -2.78492188 2.9659375 -1.93359375 2.046875 C-1.29550781 1.37140625 -0.65742187 0.6959375 0 0 Z " fill="#B7D6D7" transform="translate(676,702)"/>
<path d="M0 0 C-1.62249941 0.83819158 -3.24808497 1.6704116 -4.875 2.5 C-6.23238281 3.19609375 -6.23238281 3.19609375 -7.6171875 3.90625 C-10 5 -10 5 -12 5 C-11.375 3.125 -11.375 3.125 -10 1 C-6.18941183 -0.73961634 -3.96516557 -1.19298271 0 0 Z " fill="#B9D6D8" transform="translate(1231,1450)"/>
<path d="M0 0 C0.33 0.66 0.66 1.32 1 2 C-0.28655265 3.81613362 -1.57939995 5.62780954 -2.875 7.4375 C-3.95394531 8.95150391 -3.95394531 8.95150391 -5.0546875 10.49609375 C-7 13 -7 13 -9 14 C-8.03798824 9.51061181 -6.58993173 5.99160978 -3 3 C-2.34 3 -1.68 3 -1 3 C-0.67 2.01 -0.34 1.02 0 0 Z " fill="#B0D1D4" transform="translate(1401,1306)"/>
<path d="M0 0 C-1.49835228 4.66154042 -4.88463591 5.86610751 -9 8 C-9.33 7.01 -9.66 6.02 -10 5 C-8.90241493 4.15801693 -7.79664683 3.32669329 -6.6875 2.5 C-6.07261719 2.0359375 -5.45773437 1.571875 -4.82421875 1.09375 C-3 0 -3 0 0 0 Z " fill="#12394A" transform="translate(1053,1217)"/>
<path d="M0 0 C2.29633824 3.44450737 2.54016485 5.93812283 3 10 C3.66 10 4.32 10 5 10 C4.67 12.31 4.34 14.62 4 17 C2.48300584 14.19547298 1.54691437 11.6142698 0.875 8.5 C0.70742188 7.7471875 0.53984375 6.994375 0.3671875 6.21875 C0 4 0 4 0 0 Z " fill="#B9D6D8" transform="translate(560,1121)"/>
<path d="M0 0 C0.99 0.33 1.98 0.66 3 1 C-0.45436433 4.59253891 -4.19364503 7.79239749 -8 11 C-8.66 10.67 -9.32 10.34 -10 10 C-6.7 6.7 -3.4 3.4 0 0 Z " fill="#B2D2D5" transform="translate(703,675)"/>
<path d="M0 0 C0.66 0 1.32 0 2 0 C3.625 2 3.625 2 5 4 C3.69593116 6.01920337 2.36176581 8.01924973 1 10 C0.67 10 0.34 10 0 10 C0 6.7 0 3.4 0 0 Z " fill="#CBE6EA" transform="translate(1426,1260)"/>
<path d="M0 0 C-4.625 4.875 -4.625 4.875 -8 6 C-8 4.35 -8 2.7 -8 1 C-5.29120665 -0.35439668 -2.99066732 -0.06501451 0 0 Z " fill="#11384B" transform="translate(1064,1241)"/>
<path d="M0 0 C0.99 0.33 1.98 0.66 3 1 C1.2126038 2.33905267 -0.58004953 3.67109066 -2.375 5 C-3.37273437 5.7425 -4.37046875 6.485 -5.3984375 7.25 C-8 9 -8 9 -10 9 C-10 8.01 -10 7.02 -10 6 C-3.375 3.125 -3.375 3.125 0 2 C0 1.34 0 0.68 0 0 Z " fill="#B8D5D6" transform="translate(1306,1401)"/>
<path d="M0 0 C1 2 1 2 0.328125 4.3125 C-0.02765625 5.199375 -0.3834375 6.08625 -0.75 7 C-1.09546875 7.886875 -1.4409375 8.77375 -1.796875 9.6875 C-3 12 -3 12 -6 14 C-5.41892368 10.2397015 -4.34800504 7.46964968 -2.4375 4.1875 C-1.98246094 3.39730469 -1.52742187 2.60710938 -1.05859375 1.79296875 C-0.53458984 0.90544922 -0.53458984 0.90544922 0 0 Z " fill="#BAD6DA" transform="translate(599,814)"/>
<path d="M0 0 C0.66 0.33 1.32 0.66 2 1 C-0.97 5.95 -0.97 5.95 -4 11 C-4.66 10.67 -5.32 10.34 -6 10 C-6 9.34 -6 8.68 -6 8 C-5.34 8 -4.68 8 -4 8 C-3.71125 7.05125 -3.4225 6.1025 -3.125 5.125 C-2 2 -2 2 0 0 Z " fill="#E9FBFC" transform="translate(618,776)"/>
<path d="M0 0 C3.1875 -0.25 3.1875 -0.25 6 0 C6.33 0.66 6.66 1.32 7 2 C3.7 2.66 0.4 3.32 -3 4 C-2.01 2.68 -1.02 1.36 0 0 Z " fill="#13374B" transform="translate(1038,1292)"/>
<path d="M0 0 C0.33 0 0.66 0 1 0 C1 6.27 1 12.54 1 19 C0.01 18.34 -0.98 17.68 -2 17 C-2 16.34 -2 15.68 -2 15 C-1.34 15 -0.68 15 0 15 C0 10.05 0 5.1 0 0 Z " fill="#C0E7F2" transform="translate(1007,1208)"/>
<path d="M0 0 C0 0.99 0 1.98 0 3 C-2.95183101 5.95183101 -5.95511947 6.08663988 -10 7 C-7.2180632 3.72713318 -3.72045933 2.03572303 0 0 Z " fill="#214859" transform="translate(1062,773)"/>
<path d="M0 0 C0 0.66 0 1.32 0 2 C-1.59915881 2.69906942 -3.20455045 3.38389468 -4.8125 4.0625 C-5.70582031 4.44535156 -6.59914063 4.82820313 -7.51953125 5.22265625 C-10 6 -10 6 -13 5 C-11.21046815 4.16209211 -9.41830305 3.32980604 -7.625 2.5 C-6.62726563 2.0359375 -5.62953125 1.571875 -4.6015625 1.09375 C-2 0 -2 0 0 0 Z " fill="#B7D6D8" transform="translate(1197,1463)"/>
<path d="M0 0 C-1.36944102 2.94956528 -2.87830409 5.52468811 -5 8 C-5.66 8 -6.32 8 -7 8 C-7 7.01 -7 6.02 -7 5 C-6.34 4.67 -5.68 4.34 -5 4 C-5 3.01 -5 2.02 -5 1 C-3 0 -3 0 0 0 Z " fill="#B9D6D8" transform="translate(1385,1328)"/>
<path d="M0 0 C0.66 0 1.32 0 2 0 C0.83857315 4.35535069 -0.07699505 6.64619703 -4 9 C-3.4739075 5.21213403 -2.61896089 2.82847776 0 0 Z " fill="#C0E5EE" transform="translate(1082,1288)"/>
<path d="M0 0 C0.66 0 1.32 0 2 0 C3.32 3.3 4.64 6.6 6 10 C5.01 10 4.02 10 3 10 C1.87119943 6.68885166 0.78697325 3.41021743 0 0 Z " fill="#1D4758" transform="translate(981,1264)"/>
<path d="M0 0 C1.65 0.33 3.3 0.66 5 1 C4.04578192 2.14926266 3.08647955 3.29430541 2.125 4.4375 C1.59132813 5.07558594 1.05765625 5.71367188 0.5078125 6.37109375 C-1 8 -1 8 -3 9 C-3 8.01 -3 7.02 -3 6 C-2.01 5.34 -1.02 4.68 0 4 C0 2.68 0 1.36 0 0 Z " fill="#0A2F42" transform="translate(1056,806)"/>
<path d="M0 0 C0.66 0 1.32 0 2 0 C3.5078125 1.6796875 3.5078125 1.6796875 5.125 3.875 C5.66382813 4.59429688 6.20265625 5.31359375 6.7578125 6.0546875 C8 8 8 8 8 10 C7.01 9.67 6.02 9.34 5 9 C5 8.34 5 7.68 5 7 C4.34 7 3.68 7 3 7 C0 2.61538462 0 2.61538462 0 0 Z " fill="#B1D1D4" transform="translate(1392,729)"/>
<path d="M0 0 C1.32 0.33 2.64 0.66 4 1 C2.71475739 1.86380259 1.42157581 2.71580369 0.125 3.5625 C-0.59429688 4.03816406 -1.31359375 4.51382812 -2.0546875 5.00390625 C-2.69664063 5.33261719 -3.33859375 5.66132812 -4 6 C-4.66 5.67 -5.32 5.34 -6 5 C-5.34 4.34 -4.68 3.68 -4 3 C-3.01 3 -2.02 3 -1 3 C-0.67 2.01 -0.34 1.02 0 0 Z " fill="#B8D7D8" transform="translate(1258,1432)"/>
<path d="M0 0 C4.75 0.875 4.75 0.875 7 2 C7 2.66 7 3.32 7 4 C4.36 3.67 1.72 3.34 -1 3 C-0.67 2.01 -0.34 1.02 0 0 Z " fill="#0C3241" transform="translate(1004,1292)"/>
<path d="M0 0 C0.66 0.33 1.32 0.66 2 1 C-0.77079887 4.80984844 -4.62868145 5.06840752 -9 6 C-9 5.34 -9 4.68 -9 4 C-7.54618103 3.30300448 -6.08677047 2.61766134 -4.625 1.9375 C-3.40683594 1.36322266 -3.40683594 1.36322266 -2.1640625 0.77734375 C-1.44992187 0.52082031 -0.73578125 0.26429688 0 0 Z " fill="#B5D4D4" transform="translate(827,593)"/>
<path d="M0 0 C0.99 0.33 1.98 0.66 3 1 C1.02 3.97 1.02 3.97 -1 7 C-1.66 6.67 -2.32 6.34 -3 6 C-1.125 1.125 -1.125 1.125 0 0 Z " fill="#214659" transform="translate(1077,1291)"/>
<path d="M0 0 C8.57142857 -0.28571429 8.57142857 -0.28571429 12 2 C7.31034294 3.11658501 4.46236469 2.80619523 0 1 C0 0.67 0 0.34 0 0 Z " fill="#1F4457" transform="translate(1086,1202)"/>
<path d="M0 0 C0.66 0.33 1.32 0.66 2 1 C1.67 2.32 1.34 3.64 1 5 C2.98 5 4.96 5 7 5 C7 5.33 7 5.66 7 6 C4.36 6 1.72 6 -1 6 C-1.042721 4.33388095 -1.04063832 2.66617115 -1 1 C-0.67 0.67 -0.34 0.34 0 0 Z " fill="#C5E7EF" transform="translate(698,1195)"/>
<path d="M0 0 C5.57142857 5.14285714 5.57142857 5.14285714 6 9 C1.3125 5.484375 1.3125 5.484375 0 4 C0 2.68 0 1.36 0 0 Z " fill="#BAE1EA" transform="translate(992,817)"/>
<path d="M0 0 C0.66 1.32 1.32 2.64 2 4 C0.1875 5.0625 0.1875 5.0625 -2 6 C-2.99 5.67 -3.98 5.34 -5 5 C-3.35 3.35 -1.7 1.7 0 0 Z " fill="#A8CED9" transform="translate(1057,811)"/>
<path d="M0 0 C-1.44253657 3.36591866 -3.33264727 5.51047079 -6 8 C-5.62403791 5.21788056 -5.32681541 3.4120716 -3.5625 1.1875 C-2 0 -2 0 0 0 Z " fill="#E9FAFB" transform="translate(647,736)"/>
<path d="M0 0 C0.66 0.33 1.32 0.66 2 1 C-1.465 3.97 -1.465 3.97 -5 7 C-5.33 6.01 -5.66 5.02 -6 4 C-5.01 4 -4.02 4 -3 4 C-3 3.01 -3 2.02 -3 1 C-2.01 0.67 -1.02 0.34 0 0 Z " fill="#B6D3D7" transform="translate(1318,1392)"/>
<path d="M0 0 C2.64 0 5.28 0 8 0 C4.81237635 2.12508244 2.73487777 2.5020163 -1 3 C-0.67 2.01 -0.34 1.02 0 0 Z " fill="#10384D" transform="translate(1008,1320)"/>
<path d="M0 0 C0.66 0.33 1.32 0.66 2 1 C-4.28571429 6.57142857 -4.28571429 6.57142857 -8 7 C-8 6.34 -8 5.68 -8 5 C-6.3203125 3.67578125 -6.3203125 3.67578125 -4.125 2.3125 C-3.40570312 1.85488281 -2.68640625 1.39726563 -1.9453125 0.92578125 C-1.30335938 0.62027344 -0.66140625 0.31476562 0 0 Z " fill="#B6D3D5" transform="translate(767,626)"/>
<path d="M0 0 C0.66 0.33 1.32 0.66 2 1 C0.50260417 2.23697917 -0.99479167 3.47395833 -2.4921875 4.7109375 C-3.71051161 5.75250992 -4.86660097 6.86660097 -6 8 C-6.33 7.01 -6.66 6.02 -7 5 C-4.69 3.35 -2.38 1.7 0 0 Z " fill="#EDFAFA" transform="translate(1285,1418)"/>
<path d="M0 0 C5.57142857 5.14285714 5.57142857 5.14285714 6 9 C0.42857143 3.85714286 0.42857143 3.85714286 0 0 Z " fill="#B3D2D6" transform="translate(640,1301)"/>
<path d="M0 0 C0.33 0 0.66 0 1 0 C1 2.64 1 5.28 1 8 C1.66 8 2.32 8 3 8 C2.34 9.32 1.68 10.64 1 12 C0.67 12 0.34 12 0 12 C0 8.04 0 4.08 0 0 Z " fill="#BCE3EF" transform="translate(1037,1216)"/>
<path d="M0 0 C1 3 1 3 0.1875 5.625 C-1 8 -1 8 -3 9 C-2.5020163 5.26512223 -2.12508244 3.18762365 0 0 Z " fill="#B4D6D6" transform="translate(583,850)"/>
<path d="M0 0 C2.62187494 1.04874998 3.79371361 1.64931313 5.25 4.125 C5.4975 4.74375 5.745 5.3625 6 6 C2.535 4.02 2.535 4.02 -1 2 C-0.67 1.34 -0.34 0.68 0 0 Z " fill="#0B3344" transform="translate(1006,791)"/>
<path d="M0 0 C-0.33 0.66 -0.66 1.32 -1 2 C-3.92713788 2.94934202 -5.42831368 3.23176473 -8.3125 2.0625 C-8.869375 1.711875 -9.42625 1.36125 -10 1 C-6.61981469 -0.04005702 -3.5219721 -0.08004482 0 0 Z " fill="#B1D3D5" transform="translate(950,557)"/>
</svg>
